<?xml version="1.0" encoding="UTF-8" standalone="no"?>
<!DOCTYPE svg PUBLIC "-//W3C//DTD SVG 1.1//EN" "http://www.w3.org/Graphics/SVG/1.1/DTD/svg11.dtd">
<svg width="100%" height="100%" viewBox="0 0 567 567" version="1.1" xmlns="http://www.w3.org/2000/svg" xmlns:xlink="http://www.w3.org/1999/xlink" xml:space="preserve" xmlns:serif="http://www.serif.com/" style="fill-rule:evenodd;clip-rule:evenodd;stroke-linejoin:round;stroke-miterlimit:2;">
    <g transform="matrix(1.29131,0,0,1.30834,-106.551,-110.883)">
        <path d="M466.667,163.29L441.972,138.916L162.088,138.916L137.392,163.29L137.392,439.531L162.088,463.905L441.972,463.905L466.667,439.531L466.667,163.29Z" style="fill:white;"/>
    </g>
    <g transform="matrix(0.613515,0,0,1,107.685,-1)">
        <rect x="267.261" y="12.421" width="38.503" height="47.502" style="fill:white;"/>
    </g>
    <g transform="matrix(0.613515,0,0,1,107.685,495.453)">
        <rect x="267.261" y="12.421" width="38.503" height="47.502" style="fill:white;"/>
    </g>
    <g transform="matrix(0.613515,0,0,1,25.0081,-1)">
        <rect x="267.261" y="12.421" width="38.503" height="47.502" style="fill:white;"/>
    </g>
    <g transform="matrix(0.613515,0,0,1,25.0081,495.453)">
        <rect x="267.261" y="12.421" width="38.503" height="47.502" style="fill:white;"/>
    </g>
    <g transform="matrix(0.613515,0,0,1,190.362,-1)">
        <rect x="267.261" y="12.421" width="38.503" height="47.502" style="fill:white;"/>
    </g>
    <g transform="matrix(0.613515,0,0,1,190.362,495.453)">
        <rect x="267.261" y="12.421" width="38.503" height="47.502" style="fill:white;"/>
    </g>
    <g transform="matrix(0.613515,0,0,1,273.04,-1)">
        <rect x="267.261" y="12.421" width="38.503" height="47.502" style="fill:white;"/>
    </g>
    <g transform="matrix(0.613515,0,0,1,273.04,495.453)">
        <rect x="267.261" y="12.421" width="38.503" height="47.502" style="fill:white;"/>
    </g>
    <g transform="matrix(0.613515,0,0,1,-57.669,-1)">
        <rect x="267.261" y="12.421" width="38.503" height="47.502" style="fill:white;"/>
    </g>
    <g transform="matrix(0.613515,0,0,1,-57.669,495.453)">
        <rect x="267.261" y="12.421" width="38.503" height="47.502" style="fill:white;"/>
    </g>
    <g transform="matrix(1.22703,0,0,0.497291,-315.888,265.477)">
        <rect x="267.261" y="12.421" width="38.503" height="47.502" style="fill:white;"/>
    </g>
    <g transform="matrix(1.22703,0,0,0.497291,179.938,265.477)">
        <rect x="267.261" y="12.421" width="38.503" height="47.502" style="fill:white;"/>
    </g>
    <g transform="matrix(1.22703,0,0,0.497291,-315.888,430.831)">
        <rect x="267.261" y="12.421" width="38.503" height="47.502" style="fill:white;"/>
    </g>
    <g transform="matrix(1.22703,0,0,0.497291,179.938,430.831)">
        <rect x="267.261" y="12.421" width="38.503" height="47.502" style="fill:white;"/>
    </g>
    <g transform="matrix(1.22703,0,0,0.497291,-315.888,348.154)">
        <rect x="267.261" y="12.421" width="38.503" height="47.502" style="fill:white;"/>
    </g>
    <g transform="matrix(1.22703,0,0,0.497291,179.938,348.154)">
        <rect x="267.261" y="12.421" width="38.503" height="47.502" style="fill:white;"/>
    </g>
    <g transform="matrix(1.22703,0,0,0.497291,-315.888,182.8)">
        <rect x="267.261" y="12.421" width="38.503" height="47.502" style="fill:white;"/>
    </g>
    <g transform="matrix(1.22703,0,0,0.497291,179.938,182.8)">
        <rect x="267.261" y="12.421" width="38.503" height="47.502" style="fill:white;"/>
    </g>
    <g transform="matrix(1.22703,0,0,0.497291,-315.888,100.123)">
        <rect x="267.261" y="12.421" width="38.503" height="47.502" style="fill:white;"/>
    </g>
    <g transform="matrix(1.22703,0,0,0.497291,179.938,100.123)">
        <rect x="267.261" y="12.421" width="38.503" height="47.502" style="fill:white;"/>
    </g>
</svg>
