<?xml version="1.0" encoding="UTF-8" standalone="no"?>
<!DOCTYPE svg PUBLIC "-//W3C//DTD SVG 1.1//EN" "http://www.w3.org/Graphics/SVG/1.1/DTD/svg11.dtd">
<svg width="100%" height="100%" viewBox="0 0 270 41" version="1.1" xmlns="http://www.w3.org/2000/svg" xmlns:xlink="http://www.w3.org/1999/xlink" xml:space="preserve" xmlns:serif="http://www.serif.com/" style="fill-rule:evenodd;clip-rule:evenodd;stroke-linejoin:round;stroke-miterlimit:2;">
    <g transform="matrix(1,0,0,1,-309.664,-541.174)">
        <g transform="matrix(41.6667,0,0,41.6667,308.804,572.113)">
            <path d="M0.726,-0.455C0.71,-0.635 0.578,-0.737 0.395,-0.737C0.199,-0.737 0.044,-0.607 0.044,-0.364C0.044,-0.122 0.195,0.01 0.395,0.01C0.608,0.01 0.716,-0.138 0.726,-0.261L0.526,-0.263C0.516,-0.201 0.472,-0.162 0.399,-0.162C0.303,-0.162 0.247,-0.23 0.247,-0.364C0.247,-0.49 0.301,-0.565 0.401,-0.565C0.477,-0.565 0.52,-0.521 0.526,-0.455L0.726,-0.455Z" style="fill:white;fill-rule:nonzero;"/>
        </g>
        <g transform="matrix(41.6667,0,0,41.6667,340.823,572.113)">
            <path d="M0.312,0.01C0.49,0.01 0.595,-0.104 0.595,-0.271C0.595,-0.439 0.49,-0.553 0.312,-0.553C0.135,-0.553 0.03,-0.439 0.03,-0.271C0.03,-0.104 0.135,0.01 0.312,0.01ZM0.314,-0.135C0.261,-0.135 0.23,-0.187 0.23,-0.273C0.23,-0.358 0.261,-0.411 0.314,-0.411C0.364,-0.411 0.395,-0.358 0.395,-0.273C0.395,-0.187 0.364,-0.135 0.314,-0.135Z" style="fill:white;fill-rule:nonzero;"/>
        </g>
        <g transform="matrix(41.6667,0,0,41.6667,366.865,572.113)">
            <path d="M0.05,-0L0.246,-0L0.246,-0.318C0.246,-0.366 0.271,-0.395 0.311,-0.395C0.352,-0.395 0.378,-0.366 0.378,-0.318L0.378,-0L0.565,-0L0.565,-0.318C0.565,-0.366 0.59,-0.395 0.631,-0.395C0.671,-0.395 0.697,-0.366 0.697,-0.318L0.697,-0L0.893,-0L0.893,-0.368C0.893,-0.48 0.822,-0.553 0.717,-0.553C0.636,-0.553 0.571,-0.509 0.553,-0.442L0.547,-0.442C0.536,-0.509 0.474,-0.553 0.398,-0.553C0.322,-0.553 0.264,-0.51 0.241,-0.442L0.236,-0.442L0.236,-0.545L0.05,-0.545L0.05,-0Z" style="fill:white;fill-rule:nonzero;"/>
        </g>
        <g transform="matrix(41.6667,0,0,41.6667,406.046,572.113)">
            <path d="M0.05,0.205L0.246,0.205L0.246,-0.089L0.249,-0.089C0.271,-0.034 0.324,0.007 0.401,0.007C0.517,0.007 0.615,-0.084 0.615,-0.273C0.615,-0.47 0.51,-0.553 0.402,-0.553C0.321,-0.553 0.27,-0.506 0.249,-0.45L0.244,-0.45L0.244,-0.545L0.05,-0.545L0.05,0.205ZM0.241,-0.273C0.241,-0.354 0.274,-0.402 0.328,-0.402C0.382,-0.402 0.413,-0.354 0.413,-0.273C0.413,-0.192 0.382,-0.143 0.328,-0.143C0.274,-0.143 0.241,-0.193 0.241,-0.273Z" style="fill:white;fill-rule:nonzero;"/>
        </g>
        <g transform="matrix(41.6667,0,0,41.6667,433.035,572.113)">
            <path d="M0.047,-0L0.57,-0L0.57,-0.159L0.244,-0.159L0.244,-0.284L0.544,-0.284L0.544,-0.443L0.244,-0.443L0.244,-0.568L0.571,-0.568L0.571,-0.727L0.047,-0.727L0.047,-0Z" style="fill:white;fill-rule:nonzero;"/>
        </g>
        <g transform="matrix(41.6667,0,0,41.6667,458.958,572.113)">
            <path d="M0.246,-0.307C0.246,-0.361 0.277,-0.393 0.325,-0.393C0.375,-0.393 0.404,-0.361 0.403,-0.307L0.403,-0L0.599,-0L0.599,-0.348C0.6,-0.467 0.525,-0.553 0.409,-0.553C0.329,-0.553 0.265,-0.511 0.241,-0.442L0.236,-0.442L0.236,-0.545L0.05,-0.545L0.05,-0L0.246,-0L0.246,-0.307Z" style="fill:white;fill-rule:nonzero;"/>
        </g>
        <g transform="matrix(41.6667,0,0,41.6667,485.887,572.113)">
            <path d="M0.312,0.216C0.485,0.216 0.599,0.137 0.599,-0.001L0.599,-0.545L0.403,-0.545L0.403,-0.45L0.399,-0.45C0.378,-0.506 0.327,-0.553 0.246,-0.553C0.138,-0.553 0.033,-0.47 0.033,-0.273C0.033,-0.084 0.131,-0.007 0.247,-0.007C0.321,-0.007 0.379,-0.038 0.401,-0.094L0.406,-0.094L0.406,-0.001C0.406,0.063 0.369,0.084 0.318,0.084C0.273,0.084 0.24,0.07 0.234,0.036L0.045,0.036C0.053,0.141 0.148,0.216 0.312,0.216ZM0.32,-0.146C0.266,-0.146 0.234,-0.192 0.234,-0.273C0.234,-0.354 0.266,-0.402 0.32,-0.402C0.374,-0.402 0.406,-0.354 0.406,-0.273C0.406,-0.193 0.374,-0.146 0.32,-0.146Z" style="fill:white;fill-rule:nonzero;"/>
        </g>
        <g transform="matrix(41.6667,0,0,41.6667,512.935,572.113)">
            <path d="M0.156,0.011C0.208,0.011 0.255,-0.033 0.256,-0.088C0.255,-0.142 0.208,-0.186 0.156,-0.186C0.101,-0.186 0.056,-0.142 0.057,-0.088C0.056,-0.033 0.101,0.011 0.156,0.011Z" style="fill:rgb(109,36,122);fill-rule:nonzero;"/>
        </g>
        <g transform="matrix(41.6667,0,0,41.6667,525.956,572.113)">
            <path d="M0.312,0.216C0.485,0.216 0.599,0.137 0.599,-0.001L0.599,-0.545L0.403,-0.545L0.403,-0.45L0.399,-0.45C0.378,-0.506 0.327,-0.553 0.246,-0.553C0.138,-0.553 0.033,-0.47 0.033,-0.273C0.033,-0.084 0.131,-0.007 0.247,-0.007C0.321,-0.007 0.379,-0.038 0.401,-0.094L0.406,-0.094L0.406,-0.001C0.406,0.063 0.369,0.084 0.318,0.084C0.273,0.084 0.24,0.07 0.234,0.036L0.045,0.036C0.053,0.141 0.148,0.216 0.312,0.216ZM0.32,-0.146C0.266,-0.146 0.234,-0.192 0.234,-0.273C0.234,-0.354 0.266,-0.402 0.32,-0.402C0.374,-0.402 0.406,-0.354 0.406,-0.273C0.406,-0.193 0.374,-0.146 0.32,-0.146Z" style="fill:rgb(109,36,122);fill-rule:nonzero;"/>
        </g>
        <g transform="matrix(41.6667,0,0,41.6667,553.004,572.113)">
            <path d="M0.312,0.216C0.485,0.216 0.599,0.137 0.599,-0.001L0.599,-0.545L0.403,-0.545L0.403,-0.45L0.399,-0.45C0.378,-0.506 0.327,-0.553 0.246,-0.553C0.138,-0.553 0.033,-0.47 0.033,-0.273C0.033,-0.084 0.131,-0.007 0.247,-0.007C0.321,-0.007 0.379,-0.038 0.401,-0.094L0.406,-0.094L0.406,-0.001C0.406,0.063 0.369,0.084 0.318,0.084C0.273,0.084 0.24,0.07 0.234,0.036L0.045,0.036C0.053,0.141 0.148,0.216 0.312,0.216ZM0.32,-0.146C0.266,-0.146 0.234,-0.192 0.234,-0.273C0.234,-0.354 0.266,-0.402 0.32,-0.402C0.374,-0.402 0.406,-0.354 0.406,-0.273C0.406,-0.193 0.374,-0.146 0.32,-0.146Z" style="fill:rgb(109,36,122);fill-rule:nonzero;"/>
        </g>
    </g>
</svg>
